<svg width="28" height="28" viewBox="0 0 28 28" fill="none" xmlns="http://www.w3.org/2000/svg">
<path d="M14 22.1667C14.2307 22.1667 14.4563 22.0982 14.6482 21.97C14.84 21.8418 14.9896 21.6596 15.0779 21.4465C15.1662 21.2333 15.1893 20.9987 15.1442 20.7724C15.0992 20.5461 14.9881 20.3382 14.825 20.175C14.6618 20.0119 14.4539 19.9008 14.2276 19.8557C14.0013 19.8107 13.7667 19.8338 13.5535 19.9221C13.3404 20.0104 13.1581 20.16 13.03 20.3518C12.9018 20.5437 12.8333 20.7692 12.8333 21C12.8333 21.3094 12.9562 21.6062 13.175 21.8249C13.3938 22.0437 13.6906 22.1667 14 22.1667ZM19.8333 22.1667C20.0641 22.1667 20.2896 22.0982 20.4815 21.97C20.6734 21.8418 20.8229 21.6596 20.9112 21.4465C20.9995 21.2333 21.0226 20.9987 20.9776 20.7724C20.9326 20.5461 20.8215 20.3382 20.6583 20.175C20.4951 20.0119 20.2873 19.9008 20.0609 19.8557C19.8346 19.8107 19.6 19.8338 19.3869 19.9221C19.1737 20.0104 18.9915 20.16 18.8633 20.3518C18.7351 20.5437 18.6667 20.7692 18.6667 21C18.6667 21.3094 18.7896 21.6062 19.0084 21.8249C19.2272 22.0437 19.5239 22.1667 19.8333 22.1667ZM19.8333 17.5C20.0641 17.5 20.2896 17.4316 20.4815 17.3034C20.6734 17.1752 20.8229 16.993 20.9112 16.7798C20.9995 16.5666 21.0226 16.332 20.9776 16.1057C20.9326 15.8794 20.8215 15.6715 20.6583 15.5084C20.4951 15.3452 20.2873 15.2341 20.0609 15.1891C19.8346 15.1441 19.6 15.1672 19.3869 15.2555C19.1737 15.3438 18.9915 15.4933 18.8633 15.6852C18.7351 15.877 18.6667 16.1026 18.6667 16.3333C18.6667 16.6427 18.7896 16.9395 19.0084 17.1583C19.2272 17.3771 19.5239 17.5 19.8333 17.5ZM14 17.5C14.2307 17.5 14.4563 17.4316 14.6482 17.3034C14.84 17.1752 14.9896 16.993 15.0779 16.7798C15.1662 16.5666 15.1893 16.332 15.1442 16.1057C15.0992 15.8794 14.9881 15.6715 14.825 15.5084C14.6618 15.3452 14.4539 15.2341 14.2276 15.1891C14.0013 15.1441 13.7667 15.1672 13.5535 15.2555C13.3404 15.3438 13.1581 15.4933 13.03 15.6852C12.9018 15.877 12.8333 16.1026 12.8333 16.3333C12.8333 16.6427 12.9562 16.9395 13.175 17.1583C13.3938 17.3771 13.6906 17.5 14 17.5ZM22.1667 3.49999H21V2.33332C21 2.0239 20.8771 1.72716 20.6583 1.50837C20.4395 1.28957 20.1428 1.16666 19.8333 1.16666C19.5239 1.16666 19.2272 1.28957 19.0084 1.50837C18.7896 1.72716 18.6667 2.0239 18.6667 2.33332V3.49999H9.33333V2.33332C9.33333 2.0239 9.21042 1.72716 8.99162 1.50837C8.77283 1.28957 8.47609 1.16666 8.16667 1.16666C7.85725 1.16666 7.5605 1.28957 7.34171 1.50837C7.12292 1.72716 7 2.0239 7 2.33332V3.49999H5.83333C4.90507 3.49999 4.01484 3.86874 3.35846 4.52512C2.70208 5.18149 2.33333 6.07173 2.33333 6.99999V23.3333C2.33333 24.2616 2.70208 25.1518 3.35846 25.8082C4.01484 26.4646 4.90507 26.8333 5.83333 26.8333H22.1667C23.0949 26.8333 23.9852 26.4646 24.6415 25.8082C25.2979 25.1518 25.6667 24.2616 25.6667 23.3333V6.99999C25.6667 6.07173 25.2979 5.18149 24.6415 4.52512C23.9852 3.86874 23.0949 3.49999 22.1667 3.49999ZM23.3333 23.3333C23.3333 23.6427 23.2104 23.9395 22.9916 24.1583C22.7728 24.3771 22.4761 24.5 22.1667 24.5H5.83333C5.52391 24.5 5.22717 24.3771 5.00837 24.1583C4.78958 23.9395 4.66667 23.6427 4.66667 23.3333V12.8333H23.3333V23.3333ZM23.3333 10.5H4.66667V6.99999C4.66667 6.69057 4.78958 6.39382 5.00837 6.17503C5.22717 5.95624 5.52391 5.83332 5.83333 5.83332H7V6.99999C7 7.30941 7.12292 7.60615 7.34171 7.82495C7.5605 8.04374 7.85725 8.16666 8.16667 8.16666C8.47609 8.16666 8.77283 8.04374 8.99162 7.82495C9.21042 7.60615 9.33333 7.30941 9.33333 6.99999V5.83332H18.6667V6.99999C18.6667 7.30941 18.7896 7.60615 19.0084 7.82495C19.2272 8.04374 19.5239 8.16666 19.8333 8.16666C20.1428 8.16666 20.4395 8.04374 20.6583 7.82495C20.8771 7.60615 21 7.30941 21 6.99999V5.83332H22.1667C22.4761 5.83332 22.7728 5.95624 22.9916 6.17503C23.2104 6.39382 23.3333 6.69057 23.3333 6.99999V10.5ZM8.16667 17.5C8.39741 17.5 8.62297 17.4316 8.81483 17.3034C9.00669 17.1752 9.15622 16.993 9.24453 16.7798C9.33283 16.5666 9.35593 16.332 9.31092 16.1057C9.2659 15.8794 9.15478 15.6715 8.99162 15.5084C8.82846 15.3452 8.62058 15.2341 8.39427 15.1891C8.16796 15.1441 7.93338 15.1672 7.7202 15.2555C7.50702 15.3438 7.32481 15.4933 7.19662 15.6852C7.06842 15.877 7 16.1026 7 16.3333C7 16.6427 7.12292 16.9395 7.34171 17.1583C7.5605 17.3771 7.85725 17.5 8.16667 17.5ZM8.16667 22.1667C8.39741 22.1667 8.62297 22.0982 8.81483 21.97C9.00669 21.8418 9.15622 21.6596 9.24453 21.4465C9.33283 21.2333 9.35593 20.9987 9.31092 20.7724C9.2659 20.5461 9.15478 20.3382 8.99162 20.175C8.82846 20.0119 8.62058 19.9008 8.39427 19.8557C8.16796 19.8107 7.93338 19.8338 7.7202 19.9221C7.50702 20.0104 7.32481 20.16 7.19662 20.3518C7.06842 20.5437 7 20.7692 7 21C7 21.3094 7.12292 21.6062 7.34171 21.8249C7.5605 22.0437 7.85725 22.1667 8.16667 22.1667Z" fill="#B9D4DC"/>
</svg>
