<svg width="28" height="30" viewBox="0 0 28 30" fill="none" xmlns="http://www.w3.org/2000/svg">
<path d="M11.8055 1.29565C12.4195 0.778109 13.1968 0.494263 13.9999 0.494263C14.803 0.494263 15.5802 0.778109 16.1943 1.29565L26.4096 9.91438C27.1784 10.5606 27.6203 11.5125 27.6203 12.5174V27.3516C27.6203 28.054 27.3413 28.7277 26.8446 29.2243C26.348 29.721 25.6743 30 24.9719 30H20.4318C19.7293 30 19.0557 29.721 18.559 29.2243C18.0624 28.7277 17.7833 28.054 17.7833 27.3516V19.7847C17.7833 19.4837 17.6637 19.195 17.4509 18.9821C17.238 18.7692 16.9493 18.6496 16.6483 18.6496H11.3514C11.0504 18.6496 10.7617 18.7692 10.5488 18.9821C10.336 19.195 10.2164 19.4837 10.2164 19.7847V27.3516C10.2164 28.054 9.93737 28.7277 9.4407 29.2243C8.94402 29.721 8.27038 30 7.56798 30H3.02782C2.68002 30 2.33563 29.9315 2.01431 29.7984C1.69299 29.6653 1.40103 29.4703 1.1551 29.2243C0.909171 28.9784 0.71409 28.6864 0.580994 28.3651C0.447898 28.0438 0.379395 27.6994 0.379395 27.3516V12.5159C0.379395 11.5125 0.821303 10.5606 1.5901 9.91287L11.8055 1.29565Z" fill="#6A62B7"/>
</svg>
