<svg width="10" height="12" viewBox="0 0 10 12" fill="none" xmlns="http://www.w3.org/2000/svg">
<path d="M5.00001 0.166666C3.76233 0.166666 2.57535 0.658331 1.70018 1.5335C0.825009 2.40867 0.333344 3.59566 0.333344 4.83333C0.333344 7.98333 4.44584 11.5417 4.62084 11.6933C4.7265 11.7837 4.86097 11.8334 5.00001 11.8334C5.13905 11.8334 5.27352 11.7837 5.37918 11.6933C5.58334 11.5417 9.66668 7.98333 9.66668 4.83333C9.66668 3.59566 9.17501 2.40867 8.29984 1.5335C7.42467 0.658331 6.23769 0.166666 5.00001 0.166666ZM5.00001 10.4625C3.75751 9.29583 1.50001 6.78167 1.50001 4.83333C1.50001 3.90507 1.86876 3.01484 2.52514 2.35846C3.18151 1.70208 4.07175 1.33333 5.00001 1.33333C5.92827 1.33333 6.81851 1.70208 7.47488 2.35846C8.13126 3.01484 8.50001 3.90507 8.50001 4.83333C8.50001 6.78167 6.24251 9.30167 5.00001 10.4625ZM5.00001 2.5C4.53852 2.5 4.08739 2.63685 3.70368 2.89324C3.31996 3.14963 3.0209 3.51404 2.84429 3.9404C2.66769 4.36677 2.62148 4.83592 2.71151 5.28854C2.80154 5.74117 3.02377 6.15693 3.35009 6.48325C3.67642 6.80957 4.09218 7.0318 4.5448 7.12183C4.99742 7.21186 5.46658 7.16566 5.89294 6.98905C6.3193 6.81245 6.68371 6.51338 6.9401 6.12966C7.19649 5.74595 7.33334 5.29482 7.33334 4.83333C7.33334 4.21449 7.08751 3.621 6.64993 3.18342C6.21234 2.74583 5.61885 2.5 5.00001 2.5ZM5.00001 6C4.76926 6 4.5437 5.93158 4.35184 5.80338C4.15999 5.67519 4.01045 5.49298 3.92215 5.2798C3.83385 5.06662 3.81074 4.83204 3.85576 4.60573C3.90078 4.37942 4.01189 4.17154 4.17505 4.00837C4.33821 3.84521 4.54609 3.7341 4.7724 3.68908C4.99872 3.64407 5.23329 3.66717 5.44647 3.75547C5.65965 3.84378 5.84186 3.99331 5.97006 4.18517C6.09825 4.37702 6.16668 4.60259 6.16668 4.83333C6.16668 5.14275 6.04376 5.4395 5.82497 5.65829C5.60617 5.87708 5.30943 6 5.00001 6Z" fill="black"/>
</svg>
