<svg width="20" height="23" viewBox="0 0 20 23" fill="none" xmlns="http://www.w3.org/2000/svg">
<path d="M9.4494 11.0792C10.9715 11.0792 12.2895 10.5333 13.3664 9.45621C14.4433 8.37931 14.9892 7.06167 14.9892 5.53941C14.9892 4.01769 14.4433 2.69987 13.3662 1.62262C12.2891 0.545905 10.9713 0 9.4494 0C7.92715 0 6.60949 0.545905 5.5326 1.6228C4.4557 2.69969 3.90961 4.01751 3.90961 5.53941C3.90961 7.06167 4.4557 8.37949 5.53277 9.45638C6.60984 10.5331 7.92767 11.0792 9.4494 11.0792Z" fill="#B9D4DC"/>
<path d="M19.1425 17.6858C19.1115 17.2377 19.0487 16.7488 18.9562 16.2326C18.8628 15.7124 18.7426 15.2208 18.5987 14.7714C18.4501 14.3069 18.248 13.8482 17.9981 13.4086C17.7387 12.9524 17.4341 12.5551 17.0923 12.2282C16.7348 11.8862 16.2972 11.6112 15.7911 11.4107C15.2868 11.2111 14.7279 11.1101 14.1301 11.1101C13.8953 11.1101 13.6682 11.2064 13.2297 11.4919C12.9598 11.6679 12.6441 11.8715 12.2918 12.0966C11.9905 12.2886 11.5823 12.4684 11.0782 12.6313C10.5863 12.7904 10.0869 12.8711 9.59399 12.8711C9.10108 12.8711 8.60185 12.7904 8.10946 12.6313C7.60585 12.4686 7.19769 12.2887 6.89675 12.0968C6.54772 11.8737 6.23187 11.6702 5.95795 11.4917C5.51996 11.2062 5.29272 11.1099 5.05793 11.1099C4.45991 11.1099 3.90119 11.2111 3.39705 11.4108C2.89132 11.6111 2.45351 11.886 2.09571 12.2284C1.75406 12.5555 1.44926 12.9526 1.19026 13.4086C0.940553 13.8482 0.738404 14.3067 0.589601 14.7715C0.445885 15.2209 0.325684 15.7124 0.232331 16.2326C0.139855 16.7481 0.0770341 17.2372 0.0459748 17.6864C0.0154419 18.1265 0 18.5832 0 19.0446C0 20.2452 0.381661 21.2171 1.13428 21.9339C1.8776 22.6413 2.86114 23.0001 4.05719 23.0001H15.1319C16.3279 23.0001 17.3111 22.6415 18.0546 21.9339C18.8074 21.2176 19.189 20.2455 19.189 19.0444C19.1889 18.5809 19.1732 18.1238 19.1425 17.6858Z" fill="#B9D4DC"/>
</svg>
